HIERARCHY
ROOT pelvis
{
	OFFSET 0.003123 -0.351407 0.012037
	CHANNELS 6 Xposition Yposition Zposition Zrotation Yrotation Xrotation 
	JOINT left_hip
	{
		OFFSET 0.058189 -0.092763 -0.026001
		CHANNELS 3 Zrotation Yrotation Xrotation
		JOINT left_knee
		{
			OFFSET 0.054695 -0.378753 -0.009396
			CHANNELS 3 Zrotation Yrotation Xrotation
			JOINT left_ankle
			{
				OFFSET -0.043453 -0.403059 -0.031876
				CHANNELS 3 Zrotation Yrotation Xrotation
				JOINT left_foot
				{
					OFFSET 0.047257 -0.057997 0.118216
					CHANNELS 3 Zrotation Yrotation Xrotation
					End Site
					{
						OFFSET 0.000000 0.000000 0.000000
					}
				}
			}
		}
	}
	JOINT right_hip
	{
		OFFSET -0.063267 -0.103908 -0.021250
		CHANNELS 3 Zrotation Yrotation Xrotation
		JOINT right_knee
		{
			OFFSET -0.044210 -0.362380 -0.016824
			CHANNELS 3 Zrotation Yrotation Xrotation
			JOINT right_ankle
			{
				OFFSET 0.015417 -0.410728 -0.020192
				CHANNELS 3 Zrotation Yrotation Xrotation
				JOINT right_foot
				{
					OFFSET -0.038812 -0.058328 0.119049
					CHANNELS 3 Zrotation Yrotation Xrotation
					End Site
					{
						OFFSET 0.000000 0.000000 0.000000
					}
				}
			}
		}
	}
	JOINT spine_1
	{
		OFFSET -0.002763 0.109891 -0.027618
		CHANNELS 3 Zrotation Yrotation Xrotation
		JOINT spine_2
		{
			OFFSET 0.009448 0.131853 -0.005940
			CHANNELS 3 Zrotation Yrotation Xrotation
			JOINT spine_3
			{
				OFFSET -0.011330 0.052235 0.028447
				CHANNELS 3 Zrotation Yrotation Xrotation
				JOINT neck
				{
					OFFSET -0.012164 0.165167 -0.031615
					CHANNELS 3 Zrotation Yrotation Xrotation
					JOINT head
					{
						OFFSET 0.024783 0.160452 0.020737
						CHANNELS 3 Zrotation Yrotation Xrotation
						End Site
						{
							OFFSET 0.000000 0.000000 0.000000
						}
					}
				}
				JOINT left_collar
				{
					OFFSET 0.046364 0.084944 -0.007220
					CHANNELS 3 Zrotation Yrotation Xrotation
					JOINT left_shoulder
					{
						OFFSET 0.119239 0.057728 -0.015461
						CHANNELS 3 Zrotation Yrotation Xrotation
						JOINT left_elbow
						{
							OFFSET 0.254123 -0.072151 -0.042459
							CHANNELS 3 Zrotation Yrotation Xrotation
							JOINT left_wrist
							{
								OFFSET 0.251987 0.023221 -0.002472
								CHANNELS 3 Zrotation Yrotation Xrotation
								JOINT left_index_1
								{
									OFFSET 0.101902 -0.008688 0.019351
									CHANNELS 3 Zrotation Yrotation Xrotation
									JOINT left_index_2
									{
										OFFSET 0.030149 -0.011154 0.001151
										CHANNELS 3 Zrotation Yrotation Xrotation
										JOINT left_index_3
										{
											OFFSET 0.006504 -0.021577 -0.002433
											CHANNELS 3 Zrotation Yrotation Xrotation
											End Site
											{
												OFFSET 0.000000 0.000000 0.000000
											}
										}
									}
								}
								JOINT left_middle_1
								{
									OFFSET 0.109398 -0.006328 -0.003981
									CHANNELS 3 Zrotation Yrotation Xrotation
									JOINT left_middle_2
									{
										OFFSET 0.026472 -0.015218 -0.004641
										CHANNELS 3 Zrotation Yrotation Xrotation
										JOINT left_middle_3
										{
											OFFSET 0.005022 -0.023347 -0.001911
											CHANNELS 3 Zrotation Yrotation Xrotation
											End Site
											{
												OFFSET 0.000000 0.000000 0.000000
											}
										}
									}
								}
								JOINT left_pinky_1
								{
									OFFSET 0.084047 -0.014539 -0.043750
									CHANNELS 3 Zrotation Yrotation Xrotation
									JOINT left_pinky_2
									{
										OFFSET 0.012124 -0.014448 -0.005375
										CHANNELS 3 Zrotation Yrotation Xrotation
										JOINT left_pinky_3
										{
											OFFSET 0.003798 -0.018853 0.000167
											CHANNELS 3 Zrotation Yrotation Xrotation
											End Site
											{
												OFFSET 0.000000 0.000000 0.000000
											}
										}
									}
								}
								JOINT left_ring_1
								{
									OFFSET 0.097444 -0.009268 -0.027345
									CHANNELS 3 Zrotation Yrotation Xrotation
									JOINT left_ring_2
									{
										OFFSET 0.023561 -0.016057 -0.001895
										CHANNELS 3 Zrotation Yrotation Xrotation
										JOINT left_ring_3
										{
											OFFSET 0.004257 -0.023548 0.000814
											CHANNELS 3 Zrotation Yrotation Xrotation
											End Site
											{
												OFFSET 0.000000 0.000000 0.000000
											}
										}
									}
								}
								JOINT left_thumb_1
								{
									OFFSET 0.040636 -0.017977 0.025611
									CHANNELS 3 Zrotation Yrotation Xrotation
									JOINT left_thumb_2
									{
										OFFSET 0.021637 -0.017639 0.011623
										CHANNELS 3 Zrotation Yrotation Xrotation
										JOINT left_thumb_3
										{
											OFFSET 0.024002 -0.008356 0.006548
											CHANNELS 3 Zrotation Yrotation Xrotation
											End Site
											{
												OFFSET 0.000000 0.000000 0.000000
											}
										}
									}
								}
							}
						}
					}
				}
				JOINT right_collar
				{
					OFFSET -0.047695 0.084339 -0.013400
					CHANNELS 3 Zrotation Yrotation Xrotation
					JOINT right_shoulder
					{
						OFFSET -0.102578 0.053524 -0.012669
						CHANNELS 3 Zrotation Yrotation Xrotation
						JOINT right_elbow
						{
							OFFSET -0.271150 -0.036492 -0.026467
							CHANNELS 3 Zrotation Yrotation Xrotation
							JOINT right_wrist
							{
								OFFSET -0.249267 -0.004533 -0.015325
								CHANNELS 3 Zrotation Yrotation Xrotation
								JOINT right_index_1
								{
									OFFSET -0.099881 -0.011783 0.019600
									CHANNELS 3 Zrotation Yrotation Xrotation
									JOINT right_index_2
									{
										OFFSET -0.030148 -0.011154 0.001151
										CHANNELS 3 Zrotation Yrotation Xrotation
										JOINT right_index_3
										{
											OFFSET -0.006505 -0.021577 -0.002432
											CHANNELS 3 Zrotation Yrotation Xrotation
											End Site
											{
												OFFSET 0.000000 0.000000 0.000000
											}
										}
									}
								}
								JOINT right_middle_1
								{
									OFFSET -0.107376 -0.009422 -0.003734
									CHANNELS 3 Zrotation Yrotation Xrotation
									JOINT right_middle_2
									{
										OFFSET -0.026472 -0.015218 -0.004641
										CHANNELS 3 Zrotation Yrotation Xrotation
										JOINT right_middle_3
										{
											OFFSET -0.005022 -0.023347 -0.001911
											CHANNELS 3 Zrotation Yrotation Xrotation
											End Site
											{
												OFFSET 0.000000 0.000000 0.000000
											}
										}
									}
								}
								JOINT right_pinky_1
								{
									OFFSET -0.082027 -0.017634 -0.043503
									CHANNELS 3 Zrotation Yrotation Xrotation
									JOINT right_pinky_2
									{
										OFFSET -0.012123 -0.014448 -0.005374
										CHANNELS 3 Zrotation Yrotation Xrotation
										JOINT right_pinky_3
										{
											OFFSET -0.003798 -0.018852 0.000167
											CHANNELS 3 Zrotation Yrotation Xrotation
											End Site
											{
												OFFSET 0.000000 0.000000 0.000000
											}
										}
									}
								}
								JOINT right_ring_1
								{
									OFFSET -0.095423 -0.012362 -0.027099
									CHANNELS 3 Zrotation Yrotation Xrotation
									JOINT right_ring_2
									{
										OFFSET -0.023561 -0.016057 -0.001895
										CHANNELS 3 Zrotation Yrotation Xrotation
										JOINT right_ring_3
										{
											OFFSET -0.004257 -0.023548 0.000816
											CHANNELS 3 Zrotation Yrotation Xrotation
											End Site
											{
												OFFSET 0.000000 0.000000 0.000000
											}
										}
									}
								}
								JOINT right_thumb_1
								{
									OFFSET -0.038613 -0.021074 0.025861
									CHANNELS 3 Zrotation Yrotation Xrotation
									JOINT right_thumb_2
									{
										OFFSET -0.021636 -0.017639 0.011623
										CHANNELS 3 Zrotation Yrotation Xrotation
										JOINT right_thumb_3
										{
											OFFSET -0.024004 -0.008353 0.006547
											CHANNELS 3 Zrotation Yrotation Xrotation
											End Site
											{
												OFFSET 0.000000 0.000000 0.000000
											}
										}
									}
								}
							}
						}
					}
				}
			}
		}
	}
}
MOTION
Frames: 4
Frame Time: 0.050000
1.732788 0.937233 -0.254150 3.504224 -39.219441 -8.609850 8.838270 1.183089 2.848846 0.332233 -0.205110 17.622029 -7.499305 -14.142450 0.772848 0.000000 0.000000 0.000000 0.606294 0.141928 -1.320287 1.898825 0.449475 9.577894 4.012771 16.485377 -5.246941 0.000000 0.000000 0.000000 2.778676 -0.332277 2.545410 -2.929352 -3.017841 -13.302861 4.647620 -5.618205 28.426580 -6.138667 1.199321 3.907205 0.000000 0.000000 0.000000 2.435983 -7.074554 3.344603 -59.960058 -16.313954 1.740598 -36.505463 -22.042172 9.979133 -7.818200 4.671461 22.441068 -19.951161 1.251123 0.020297 3.021482 -1.017613 -1.861052 0.000000 0.000000 0.000000 -23.842619 -0.915072 -5.480520 -21.598738 1.248305 -5.731241 0.000000 0.000000 0.000000 3.506137 -18.000476 -16.295733 -102.384549 -32.294560 -16.073230 0.000000 0.000000 0.000000 -9.776655 -6.662112 -4.618184 -45.047794 0.557456 -3.611358 0.000000 0.000000 0.000000 -6.168171 10.161310 11.846186 -4.624719 -1.857057 0.967823 0.000000 0.000000 0.000000 -0.816473 10.908494 5.341210 26.248005 59.985345 -7.750982 -164.962589 51.641093 -161.761485 -5.603644 32.051545 -35.663827 31.674368 7.306028 4.927731 53.039108 10.164049 -12.634007 0.000000 0.000000 0.000000 47.649391 22.151253 -0.866074 32.376934 11.390559 -21.641212 0.000000 0.000000 0.000000 15.280972 24.389776 -27.190023 36.226137 0.237936 -3.434797 0.000000 0.000000 0.000000 45.102842 23.483134 -0.532770 50.154119 26.370362 -27.142076 0.000000 0.000000 0.000000 -13.732298 -6.321242 -4.486447 19.238518 -4.210636 6.504781 0.000000 0.000000 0.000000 
1.732788 0.937233 -0.254150 4.515001 -37.763208 -8.415615 7.864054 0.866081 1.033705 0.510055 -0.278128 18.692315 -7.950911 -14.837866 1.153353 0.000000 0.000000 0.000000 -0.577766 0.324901 -1.963567 2.359637 0.404338 9.299946 3.333924 15.192448 -5.509421 0.000000 0.000000 0.000000 0.386668 -0.280939 1.910507 -1.670338 -3.386566 -13.460492 4.792882 -6.119568 28.110535 -5.658672 1.039948 3.841782 0.000000 0.000000 0.000000 2.101657 -7.748513 3.813148 -59.518547 -16.434402 1.468328 -36.485637 -21.976812 9.940305 -8.497095 3.263133 21.631130 -21.940981 5.840531 1.008863 7.429598 -1.892477 -2.628164 0.000000 0.000000 0.000000 -22.253890 4.644891 -3.066754 -19.006416 0.824702 -5.949987 0.000000 0.000000 0.000000 0.709449 -12.799130 -10.623627 -74.231294 -49.022403 -46.314436 0.000000 0.000000 0.000000 -8.777523 -1.065230 -1.469905 -47.360692 1.249455 -2.451022 0.000000 0.000000 0.000000 -5.301318 12.702955 13.992092 -4.815169 -2.936017 0.728817 0.000000 0.000000 0.000000 -0.353129 10.005539 4.793730 26.920243 59.204803 -7.088928 -165.928673 50.932626 -162.922613 -5.969723 30.361638 -36.616363 34.464517 6.399818 5.784812 42.973565 15.324857 -24.624462 0.000000 0.000000 0.000000 49.409650 20.715253 -0.088668 26.401308 11.591982 -24.868752 0.000000 0.000000 0.000000 16.614738 22.881725 -25.021066 37.091436 -1.193953 -1.664771 0.000000 0.000000 0.000000 53.397248 28.870491 0.960439 46.842577 21.590046 -23.696079 0.000000 0.000000 0.000000 -11.988828 -7.460470 -2.918979 18.749309 -2.722284 5.859800 0.000000 0.000000 0.000000 
1.732788 0.937072 -0.251511 3.453064 -38.434070 -8.493365 7.970998 0.959031 1.773098 1.986703 -0.684317 19.102386 -8.011593 -15.095281 0.805269 0.000000 0.000000 0.000000 0.325257 0.125911 -0.902984 2.228069 0.399501 9.035282 3.697622 15.861891 -5.377389 0.000000 0.000000 0.000000 2.521270 -0.327201 2.418509 -2.566604 -3.137783 -13.388254 3.035600 -7.860211 27.893992 -5.030376 0.887083 4.282823 0.000000 0.000000 0.000000 2.568046 -6.216346 2.917785 -60.599459 -16.468997 2.615064 -35.229517 -21.226991 9.200551 -10.057037 4.930776 22.562350 -21.355491 11.513823 2.378156 1.612701 -1.885475 -4.802856 0.000000 0.000000 0.000000 -20.870269 -0.353987 -4.622833 -27.702679 8.806904 6.617476 0.000000 0.000000 0.000000 2.065309 -19.834123 -17.770127 -97.671644 -27.990551 -16.746908 0.000000 0.000000 0.000000 -13.639927 5.416095 0.920466 -43.783085 2.807646 -0.016015 0.000000 0.000000 0.000000 -6.027159 9.029583 10.901328 -4.241313 -1.351895 0.986829 0.000000 0.000000 0.000000 0.121022 13.171948 6.135720 24.608816 58.456217 -8.531448 -164.624058 50.730719 -161.915289 -6.122208 30.406651 -36.308525 34.156458 6.646128 5.784549 42.188489 15.285318 -24.661572 0.000000 0.000000 0.000000 48.653621 20.871030 -0.135726 26.475672 11.642926 -24.794240 0.000000 0.000000 0.000000 15.544752 22.650316 -24.974419 54.369590 13.272779 -17.459244 0.000000 0.000000 0.000000 52.135432 28.628532 0.672191 47.865293 21.954242 -23.495784 0.000000 0.000000 0.000000 -17.658923 -3.576560 -7.918542 27.344512 -13.523628 12.721481 0.000000 0.000000 0.000000 
1.732788 0.936911 -0.251511 3.442520 -38.440408 -8.484165 8.187742 0.960908 1.476372 1.671479 -0.545907 19.681345 -8.072134 -15.206135 0.800881 0.000000 0.000000 0.000000 0.334898 0.125574 -0.909798 2.230341 0.399915 9.042602 3.663955 15.874443 -5.431974 0.000000 0.000000 0.000000 1.982221 -0.428773 3.095188 -2.290738 -3.307117 -13.728780 3.471303 -8.621019 27.247897 -5.396939 1.010714 4.278352 0.000000 0.000000 0.000000 3.552693 -6.984419 3.066368 -61.901867 -15.296580 2.811785 -35.037269 -21.665252 9.405995 -7.446760 3.619868 20.732420 -23.072295 0.306690 -0.221794 3.488827 4.222788 12.874261 0.000000 0.000000 0.000000 -23.720265 -1.233481 -5.456097 -21.295176 0.740356 -6.235371 0.000000 0.000000 0.000000 7.630064 -18.250899 -16.321712 -101.398710 -32.285814 -16.800628 0.000000 0.000000 0.000000 -13.258951 5.068921 0.889108 -41.164905 -6.880609 -17.468350 0.000000 0.000000 0.000000 -5.757594 9.766246 11.477809 -4.978106 -1.639259 1.123688 0.000000 0.000000 0.000000 -0.270221 13.727917 6.526770 24.124101 58.052229 -8.904189 -164.641878 50.009105 -162.008340 -5.522299 29.244097 -36.649963 34.509577 6.234552 5.913361 44.163153 14.800543 -22.873288 0.000000 0.000000 0.000000 48.658313 20.213365 0.057598 33.032293 9.918488 -18.431104 0.000000 0.000000 0.000000 14.372198 21.377100 -24.042088 59.782940 13.357297 -16.587388 0.000000 0.000000 0.000000 56.040446 27.133705 2.687093 49.178444 21.927300 -23.492795 0.000000 0.000000 0.000000 -17.083284 1.779337 -9.994179 23.344187 -23.226113 16.677704 0.000000 0.000000 0.000000 
